<svg xmlns="http://www.w3.org/2000/svg" viewBox="0 0 100 80" fill="none">
  <!-- Kiwi Bird Body -->
  <ellipse cx="45" cy="35" rx="28" ry="22" fill="#8B5A2B"/>
  <!-- Kiwi Bird Head -->
  <circle cx="25" cy="28" r="14" fill="#8B5A2B"/>
  <!-- Kiwi Beak -->
  <path d="M12 32 L-5 38 L12 36 Z" fill="#CD853F"/>
  <!-- Kiwi Eye -->
  <circle cx="20" cy="25" r="3" fill="#1a1a1a"/>
  <circle cx="19" cy="24" r="1" fill="white"/>
  <!-- Kiwi Legs -->
  <path d="M55 55 L52 70 M48 55 L50 70" stroke="#CD853F" stroke-width="3" stroke-linecap="round"/>
  <!-- Kiwi Feet -->
  <path d="M48 70 L44 73 M50 70 L54 73 M52 70 L48 73 M52 70 L56 73" stroke="#CD853F" stroke-width="2" stroke-linecap="round"/>
  
  <!-- Kiwi Fruit (whole) -->
  <ellipse cx="70" cy="60" rx="18" ry="14" fill="#6B4423"/>
  <!-- Kiwi Fruit texture lines -->
  <path d="M55 55 Q70 50 85 55" stroke="#5a3a1d" stroke-width="1" fill="none"/>
  <path d="M55 65 Q70 70 85 65" stroke="#5a3a1d" stroke-width="1" fill="none"/>
  
  <!-- Kiwi Fruit (sliced) -->
  <circle cx="85" cy="45" r="12" fill="#A4C639"/>
  <circle cx="85" cy="45" r="8" fill="#C5E063"/>
  <circle cx="85" cy="45" r="3" fill="#F5F5DC"/>
  <!-- Seeds -->
  <circle cx="80" cy="42" r="1" fill="#1a1a1a"/>
  <circle cx="82" cy="48" r="1" fill="#1a1a1a"/>
  <circle cx="88" cy="41" r="1" fill="#1a1a1a"/>
  <circle cx="90" cy="47" r="1" fill="#1a1a1a"/>
  <circle cx="84" cy="38" r="1" fill="#1a1a1a"/>
  <circle cx="86" cy="52" r="1" fill="#1a1a1a"/>
</svg>
